<svg xmlns="http://www.w3.org/2000/svg" viewBox="7104.3 7172.3 191.3 55.3"><path d="M7152 7213l-4 7c-2 3-5 8-9 8s-5-3-10-3-6 3-9 3c-5 0-8-4-10-8-7-10-7-22-3-28 3-4 7-7 11-7 5 0 7 3 11 3s6-3 11-3c3 0 7 2 10 6-9 5-8 18 2 22z"/><path d="M7136 7181c2-2 3-5 3-9-3 1-7 2-9 5-2 2-3 5-3 9 4 0 7-2 9-5zM7168 7197c0 2-1 4-3 4-3 0-4-2-4-4s1-4 4-4 3 2 3 4zm-7 30v-23h7v23h-7zm20-26h-9v-6h25v6h-9v26h-7v-26zm39 19v7h-6l-1-3c-1 1-3 4-7 4-5 0-8-3-8-11v-13h7v12c0 4 1 6 4 6a4 4 0 004-4v-14h7v16zm6-9v-7h6v3c1-2 4-4 8-4s8 3 8 10v14h-7v-13c0-3-1-5-4-5-2 0-3 1-4 3v15h-7v-16zm34 7c0 3 3 4 6 4l7-1 1 5-9 2c-8 0-12-5-12-12 0-6 3-13 11-13s11 6 11 12v3h-15zm8-5c0-2-1-5-4-5s-4 3-5 5h9zm11 8l6 2c3 0 4-1 4-2l-4-3c-5-2-7-4-7-7 0-5 4-8 10-8l7 1-2 6-5-2-3 2 4 3c5 1 7 4 7 7 0 4-4 8-11 8l-7-2 1-5z"/></svg>